<svg width="16" height="16" viewBox="0 0 16 16" fill="none" xmlns="http://www.w3.org/2000/svg">
<path d="M7.99992 14C7.15788 13.2817 6.37738 12.4943 5.66659 11.646C4.59992 10.372 3.33325 8.47466 3.33325 6.66666C3.33279 5.7433 3.60626 4.84055 4.11905 4.07267C4.63184 3.30479 5.3609 2.7063 6.21396 2.35292C7.06703 1.99955 8.00575 1.90718 8.91133 2.08752C9.81691 2.26785 10.6486 2.71278 11.3013 3.36599C11.7358 3.79856 12.0802 4.31301 12.3145 4.87957C12.5489 5.44613 12.6685 6.05354 12.6666 6.66666C12.6666 8.47466 11.3999 10.372 10.3333 11.646C9.62246 12.4943 8.84196 13.2817 7.99992 14ZM7.99992 4.66666C7.46949 4.66666 6.96078 4.87737 6.58571 5.25244C6.21063 5.62752 5.99992 6.13622 5.99992 6.66666C5.99992 7.19709 6.21063 7.7058 6.58571 8.08087C6.96078 8.45594 7.46949 8.66666 7.99992 8.66666C8.53035 8.66666 9.03906 8.45594 9.41413 8.08087C9.78921 7.7058 9.99992 7.19709 9.99992 6.66666C9.99992 6.13622 9.78921 5.62752 9.41413 5.25244C9.03906 4.87737 8.53035 4.66666 7.99992 4.66666Z" fill="#954F1D"/>
</svg>
